<?xml version="1.0" encoding="UTF-8" standalone="no"?>
<svg
   xmlns:dc="http://purl.org/dc/elements/1.1/"
   xmlns:cc="http://creativecommons.org/ns#"
   xmlns:rdf="http://www.w3.org/1999/02/22-rdf-syntax-ns#"
   xmlns:svg="http://www.w3.org/2000/svg"
   xmlns="http://www.w3.org/2000/svg"
   xmlns:sodipodi="http://sodipodi.sourceforge.net/DTD/sodipodi-0.dtd"
   xmlns:inkscape="http://www.inkscape.org/namespaces/inkscape"
   version="1.1"
   id="svg883"
   width="500"
   height="500"
   viewBox="0 0 500 500"
   sodipodi:docname="crown.svg"
   inkscape:export-filename="/home/raghav/crownIcon.png"
   inkscape:export-xdpi="100"
   inkscape:export-ydpi="100"
   inkscape:version="1.0.1 (3bc2e813f5, 2020-09-07)">
  <metadata
     id="metadata889">
    <rdf:RDF>
      <cc:Work
         rdf:about="">
        <dc:format>image/svg+xml</dc:format>
        <dc:type
           rdf:resource="http://purl.org/dc/dcmitype/StillImage" />
        <dc:title></dc:title>
      </cc:Work>
    </rdf:RDF>
  </metadata>
  <defs
     id="defs887">
    <rect
       x="80.181885"
       y="162.18091"
       width="319.69751"
       height="165.70618"
       id="rect1573" />
  </defs>
  <sodipodi:namedview
     pagecolor="#000000"
     bordercolor="#666666"
     borderopacity="1"
     objecttolerance="10"
     gridtolerance="10"
     guidetolerance="10"
     inkscape:pageopacity="0"
     inkscape:pageshadow="2"
     inkscape:window-width="1920"
     inkscape:window-height="1016"
     id="namedview885"
     showgrid="false"
     inkscape:pagecheckerboard="true"
     inkscape:zoom="0.5"
     inkscape:cx="345.04458"
     inkscape:cy="163.53781"
     inkscape:window-x="0"
     inkscape:window-y="27"
     inkscape:window-maximized="1"
     inkscape:current-layer="g891"
     inkscape:document-rotation="0" />
  <g
     inkscape:groupmode="layer"
     inkscape:label="Image"
     id="g891">
    <path
       id="path899"
       style="opacity:1;fill:#cf2f6c;fill-opacity:1;stroke-width:3.00854"
       d="m 241.50716,82.206307 c -4.24144,0 -8.47003,3.15603 -13.32776,9.52378 -10.11634,13.260973 -9.68924,22.828833 1.58767,36.770533 l 9.23804,11.41585 -5.14824,30.9049 c -10.55989,63.42445 -22.92369,98.28741 -38.78054,109.49166 -7.17786,5.07183 -9.80576,5.26536 -19.1978,1.5768 -15.30036,-6.00906 -30.04953,-24.70004 -47.82615,-60.61146 -16.0694,-32.46268 -17.80483,-39.593 -11.35509,-46.60966 2.16782,-2.35841 3.94542,-8.73945 3.94542,-14.191 0,-20.39372 -18.13862,-30.90578 -28.917016,-16.77694 -10.527271,13.79968 -4.499411,35.72046 10.537116,38.41038 5.97452,1.06881 6.99778,3.83579 11.25891,30.4634 8.14557,50.9015 2.94869,89.98864 -13.23158,99.65245 -11.611293,6.93511 -25.299217,-1.25293 -47.441227,-28.31895 -11.12483,-13.59865 -17.72012,-20.8458 -14.67504,-16.14625 19.55525,30.18083 43.53078,87.81252 55.043321,132.26039 4.215433,16.2749 8.255486,29.58136 8.997486,29.5804 0.74193,-9.5e-4 7.55324,-3.14978 15.15621,-6.93782 27.23758,-13.57052 60.73335,-23.33632 123.94384,-23.33632 63.60049,0 96.57512,9.68586 125.05049,23.65166 8.13198,3.98826 15.11529,6.71359 15.49294,6.0549 0.37765,-0.65905 3.92389,-13.60453 7.89084,-28.76059 11.66558,-44.56807 35.9192,-102.84853 55.13957,-132.51262 3.04515,-4.69955 -3.55014,2.5476 -14.67497,16.14625 -22.14201,27.0658 -35.83001,35.25406 -47.44122,28.31895 -16.18035,-9.66381 -21.37716,-48.75095 -13.23159,-99.65245 4.26114,-26.62761 5.28432,-29.39459 11.25884,-30.4634 9.429,-1.6868 15.73356,-10.43991 15.73356,-21.75959 0,-20.2927 -18.12187,-30.73856 -28.86889,-16.65079 -6.19553,8.12162 -6.94077,24.88269 -1.34728,30.96794 6.44975,7.01666 4.71432,14.14698 -11.35516,46.60966 -32.46392,65.58212 -61.21687,80.20462 -81.45836,41.43775 -7.82383,-14.98413 -17.75862,-52.6182 -24.298,-91.89475 l -5.14832,-30.9049 9.23812,-11.41585 c 11.27713,-13.9417 11.70415,-23.50956 1.58782,-36.770533 -4.85773,-6.36775 -9.13444,-9.52378 -13.37596,-9.52378 z M 457.97592,223.10748 c -3.03531,-0.0661 -6.21147,1.78245 -9.33436,5.4871 -5.45242,6.46804 -6.00097,12.44395 -2.06885,22.075 3.083,7.5511 14.82683,9.89239 19.82335,3.34272 4.44996,-5.83316 5.34934,-17.51329 0.241,-24.91311 -2.69808,-3.9081 -5.62538,-5.9264 -8.66062,-5.99171 z m -432.504407,0.56794 c -3.49371,0.0147 -7.05244,2.07421 -10.24836,5.86571 -5.5431697,6.5756 -3.78797,17.6141 0.96227,23.84092 1.79943,2.35863 6.79779,3.83867 11.11454,3.27969 10.65651,-1.38019 15.17759,-16.39658 8.03514,-26.74223 -2.92804,-4.24107 -6.3698,-6.26047 -9.86359,-6.24409 z m 217.431047,50.45699 17.75428,10.78524 -29.25375,107.47335 -19.14968,-12.48812 z m -65.82113,21.12882 12.94283,16.96614 -13.08721,29.64352 20.68938,27.12061 -13.13533,17.28156 -31.7558,-41.62702 z m 109.74991,0.50476 31.75586,41.62695 -24.39425,49.32176 -12.94291,-16.9031 13.08721,-29.70656 -20.68937,-27.1206 z" />
    <path
       style="fill:#000000;stroke-width:0.106667"
       id="path895"
       d="" />
  </g>
</svg>
