<?xml version="1.0" encoding="UTF-8" standalone="no"?>
<svg
   xmlns:dc="http://purl.org/dc/elements/1.1/"
   xmlns:cc="http://creativecommons.org/ns#"
   xmlns:rdf="http://www.w3.org/1999/02/22-rdf-syntax-ns#"
   xmlns:svg="http://www.w3.org/2000/svg"
   xmlns="http://www.w3.org/2000/svg"
   xmlns:sodipodi="http://sodipodi.sourceforge.net/DTD/sodipodi-0.dtd"
   xmlns:inkscape="http://www.inkscape.org/namespaces/inkscape"
   version="1.1"
   id="svg883"
   width="500"
   height="500"
   viewBox="0 0 500 500"
   sodipodi:docname="crownText.svg"
   inkscape:export-filename="/home/raghav/crownIcon.png"
   inkscape:export-xdpi="100"
   inkscape:export-ydpi="100"
   inkscape:version="1.0.1 (3bc2e813f5, 2020-09-07)">
  <metadata
     id="metadata889">
    <rdf:RDF>
      <cc:Work
         rdf:about="">
        <dc:format>image/svg+xml</dc:format>
        <dc:type
           rdf:resource="http://purl.org/dc/dcmitype/StillImage" />
        <dc:title></dc:title>
      </cc:Work>
    </rdf:RDF>
  </metadata>
  <defs
     id="defs887">
    <rect
       x="80.181885"
       y="162.18091"
       width="319.69751"
       height="165.70618"
       id="rect1573" />
  </defs>
  <sodipodi:namedview
     pagecolor="#000000"
     bordercolor="#666666"
     borderopacity="1"
     objecttolerance="10"
     gridtolerance="10"
     guidetolerance="10"
     inkscape:pageopacity="0"
     inkscape:pageshadow="2"
     inkscape:window-width="1920"
     inkscape:window-height="1016"
     id="namedview885"
     showgrid="false"
     inkscape:pagecheckerboard="true"
     inkscape:zoom="1"
     inkscape:cx="249.65239"
     inkscape:cy="175.48876"
     inkscape:window-x="0"
     inkscape:window-y="27"
     inkscape:window-maximized="1"
     inkscape:current-layer="g891"
     inkscape:document-rotation="0" />
  <g
     inkscape:groupmode="layer"
     inkscape:label="Image"
     id="g891">
    <path
       id="path899"
       style="opacity:1;fill:#cf2f6c;fill-opacity:1;stroke-width:0.409476"
       d="m 264.26921,138.22727 c -0.57728,0 -1.15281,0.42955 -1.81397,1.29623 -1.37688,1.80488 -1.31875,3.10711 0.21609,5.00464 l 1.25734,1.55375 -0.7007,4.2063 c -1.43725,8.63236 -3.12002,13.37737 -5.27821,14.90232 -0.97694,0.6903 -1.33461,0.71664 -2.61291,0.21461 -2.08245,-0.81786 -4.08988,-3.36179 -6.50936,-8.2495 -2.18712,-4.41832 -2.42332,-5.38879 -1.54548,-6.34379 0.29505,-0.32099 0.53699,-1.18948 0.53699,-1.93146 0,-2.77568 -2.46875,-4.20642 -3.93574,-2.28342 -1.43281,1.8782 -0.61239,4.86172 1.43415,5.22783 0.81316,0.14547 0.95243,0.52207 1.53239,4.14621 1.10865,6.92793 0.40133,12.24787 -1.80088,13.56316 -1.58035,0.9439 -3.44334,-0.17053 -6.45697,-3.85434 -1.51414,-1.85084 -2.41179,-2.83721 -1.99734,-2.19758 2.66156,4.10775 5.92474,11.95169 7.49165,18.00125 0.57374,2.21509 3.0834,10.16204 4.06767,10.60527 0.98428,0.44324 -2.5356,2.06132 4.62168,-3.54118 3.26143,-2.55295 2.68047,-3.80741 11.28371,-3.80741 8.65632,0 8.68511,0.19584 13.18399,2.69564 7.55939,4.20037 4.23098,6.19236 6.12832,-2.00354 0.0233,-0.10072 0.53406,-1.85164 1.07398,-3.91445 1.58774,-6.06592 4.88877,-13.99816 7.50475,-18.03558 0.41446,-0.63963 -0.48319,0.34674 -1.99733,2.19758 -3.01363,3.68378 -4.87663,4.79824 -6.45697,3.85434 -2.20222,-1.31529 -2.90953,-6.63523 -1.80088,-13.56316 0.57996,-3.62414 0.71922,-4.00074 1.53238,-4.14621 1.28333,-0.22958 2.14141,-1.42092 2.14141,-2.96158 0,-2.76193 -2.46647,-4.18366 -3.92919,-2.26625 -0.84324,1.10539 -0.94467,3.38665 -0.18337,4.21488 0.87784,0.955 0.64164,1.92547 -1.54549,6.34379 -4.41849,8.92603 -8.3319,10.91622 -11.08686,5.63987 -1.06486,-2.03941 -2.41703,-7.16158 -3.30707,-12.5073 l -0.70071,-4.2063 1.25735,-1.55375 c 1.53487,-1.89753 1.59299,-3.19976 0.21611,-5.00464 -0.66116,-0.86668 -1.24324,-1.29623 -1.82053,-1.29623 z m 29.4624,19.1773 c -0.41312,-0.009 -0.84541,0.2426 -1.27045,0.74682 -0.7421,0.88033 -0.81676,1.69368 -0.28158,3.00451 0.41961,1.02774 2.018,1.3464 2.69805,0.45496 0.60566,-0.79392 0.72807,-2.38364 0.0328,-3.39079 -0.36722,-0.53191 -0.76564,-0.80661 -1.17875,-0.8155 z m -58.86585,0.0773 c -0.47551,0.002 -0.95987,0.28231 -1.39485,0.79835 -0.75445,0.89497 -0.51556,2.39736 0.13097,3.24486 0.24491,0.32102 0.92521,0.52246 1.51274,0.44638 1.4504,-0.18785 2.06574,-2.23165 1.09362,-3.63974 -0.39852,-0.57723 -0.86696,-0.85208 -1.34248,-0.84985 z m 29.59337,6.86743 2.41644,1.46792 -3.98157,14.62762 -2.60636,-1.69969 z m -8.95856,2.87573 1.76158,2.30917 -1.78123,4.03462 2.81592,3.69124 -1.78778,2.3521 -4.32211,-5.66563 z m 14.93747,0.0687 4.32212,5.66562 -3.32017,6.71292 -1.76159,-2.30059 1.78123,-4.0432 -2.81592,-3.69124 z"
       sodipodi:nodetypes="sscccsssssssssscszssssssssssssssscccssssssssscsssscccccccccccccccccccc" />
    <path
       style="fill:#000000;stroke-width:0.106667"
       id="path895"
       d="" />
    <text
       xml:space="preserve"
       id="text1571"
       style="font-style:normal;font-weight:normal;font-size:40px;line-height:1.25;font-family:sans-serif;white-space:pre;shape-inside:url(#rect1573);fill:#cf2f6c;fill-opacity:1;stroke:none;"
       transform="matrix(4.1674893,0,0,4.1674893,-318.32229,-525.40958)"><tspan
         x="80.181641"
         y="197.57227"><tspan
           style="font-style:normal;font-variant:normal;font-weight:normal;font-stretch:normal;font-family:heysweet;-inkscape-font-specification:heysweet;fill:#cf2f6c;fill-opacity:1">CodeQueen</tspan></tspan></text>
  </g>
</svg>
