<?xml version="1.0" encoding="UTF-8" standalone="no"?>
<svg
   xmlns:dc="http://purl.org/dc/elements/1.1/"
   xmlns:cc="http://creativecommons.org/ns#"
   xmlns:rdf="http://www.w3.org/1999/02/22-rdf-syntax-ns#"
   xmlns:svg="http://www.w3.org/2000/svg"
   xmlns="http://www.w3.org/2000/svg"
   xmlns:sodipodi="http://sodipodi.sourceforge.net/DTD/sodipodi-0.dtd"
   xmlns:inkscape="http://www.inkscape.org/namespaces/inkscape"
   version="1.1"
   id="svg883"
   width="256"
   height="256"
   viewBox="0 0 256 256"
   sodipodi:docname="crown.svg"
   inkscape:export-filename="/home/raghav/crownIcon.png"
   inkscape:export-xdpi="100"
   inkscape:export-ydpi="100"
   inkscape:version="1.0.1 (3bc2e813f5, 2020-09-07)">
  <metadata
     id="metadata889">
    <rdf:RDF>
      <cc:Work
         rdf:about="">
        <dc:format>image/svg+xml</dc:format>
        <dc:type
           rdf:resource="http://purl.org/dc/dcmitype/StillImage" />
        <dc:title></dc:title>
      </cc:Work>
    </rdf:RDF>
  </metadata>
  <defs
     id="defs887" />
  <sodipodi:namedview
     pagecolor="#000000"
     bordercolor="#666666"
     borderopacity="1"
     objecttolerance="10"
     gridtolerance="10"
     guidetolerance="10"
     inkscape:pageopacity="0"
     inkscape:pageshadow="2"
     inkscape:window-width="1920"
     inkscape:window-height="1016"
     id="namedview885"
     showgrid="false"
     inkscape:pagecheckerboard="true"
     inkscape:zoom="1"
     inkscape:cx="-167.08766"
     inkscape:cy="25.233115"
     inkscape:window-x="0"
     inkscape:window-y="27"
     inkscape:window-maximized="1"
     inkscape:current-layer="g891" />
  <g
     inkscape:groupmode="layer"
     inkscape:label="Image"
     id="g891">
    <path
       id="path899"
       style="fill:#cf2f6c;stroke-width:1.49231;fill-opacity:1;opacity:1"
       d="m 131.93127,35.267548 c -1.95473,0 -3.90352,1.684902 -6.14227,5.084459 -4.66221,7.079654 -4.4654,12.187672 0.73172,19.630726 l 4.25746,6.094616 -2.37266,16.499239 c -4.86664,33.860492 -10.56462,52.472812 -17.87244,58.454442 -3.30801,2.70771 -4.51912,2.81103 -8.84755,0.84179 -7.051348,-3.20805 -13.848696,-13.18662 -22.041252,-32.3587 -7.405788,-17.330902 -8.20555,-21.137554 -5.233135,-24.883546 0.999085,-1.259099 1.818293,-4.665777 1.818293,-7.576182 0,-10.887633 -8.359404,-16.499706 -13.326756,-8.956728 -4.851635,7.367269 -2.073597,19.070132 4.856172,20.506195 2.753411,0.570594 3.225006,2.047831 5.188787,16.263531 3.753995,27.17486 1.358933,48.04237 -6.097933,53.20162 -5.351203,3.7024 -11.659441,-0.66891 -21.863861,-15.11869 -5.127022,-7.25994 -8.166535,-11.129 -6.763161,-8.62001 9.01226,16.11266 20.061701,46.88055 25.3674,70.61 1.942721,8.68872 3.804635,15.79264 4.146594,15.79214 0.341915,-5e-4 3.480988,-1.68159 6.984905,-3.70392 12.552746,-7.24489 27.989697,-12.4586 57.120997,-12.4586 29.31104,0 44.50778,5.17104 57.63101,12.62697 3.74771,2.12919 6.96608,3.58418 7.14012,3.2325 0.17405,-0.35169 1.80836,-7.26304 3.63659,-15.35441 5.37621,-23.79365 16.5538,-54.90789 25.41175,-70.74468 1.40337,-2.50899 -1.63613,1.36007 -6.76316,8.62001 -10.20441,14.44964 -16.51267,18.82109 -21.86387,15.11869 -7.45687,-5.15925 -9.85191,-26.02676 -6.09793,-53.20162 1.9638,-14.2157 2.43536,-15.692938 5.18879,-16.263531 4.34547,-0.900515 7.25099,-5.573552 7.25099,-11.61681 0,-10.833704 -8.35168,-16.410413 -13.30458,-8.889385 -2.8553,4.335872 -3.19873,13.284161 -0.62091,16.53291 2.97243,3.745992 2.17265,7.552644 -5.23314,24.883546 -14.9614,35.01242 -28.21254,42.81896 -37.54108,22.12244 -3.60572,-7.9996 -8.18425,-28.09135 -11.19803,-49.059972 l -2.37265,-16.499239 4.25747,-6.094616 c 5.19722,-7.443054 5.39403,-12.551072 0.73178,-19.630726 -2.23874,-3.399564 -4.20972,-5.084459 -6.16446,-5.084459 z m 99.76219,75.223052 c -1.39881,-0.0345 -2.86261,0.95164 -4.30182,2.92945 -2.51282,3.45311 -2.76564,6.64346 -0.95345,11.78518 1.42081,4.03134 6.83311,5.28128 9.13582,1.78462 2.05083,-3.11417 2.46532,-9.34985 0.11126,-13.30042 -1.24345,-2.08642 -2.59256,-3.16391 -3.99137,-3.19883 z m -199.324791,0.30308 c -1.610119,0.009 -3.250213,1.10732 -4.723126,3.13149 -2.554604,3.51055 -1.745703,9.40367 0.443492,12.72798 0.829286,1.25921 3.132846,2.04937 5.122264,1.75095 4.911196,-0.73684 6.994798,-8.75367 3.703108,-14.27689 -1.349427,-2.26421 -2.935612,-3.34231 -4.545738,-3.33353 z m 100.205661,26.93752 8.18232,5.75791 -13.48198,57.37694 -8.82537,-6.66704 z m -30.33444,11.28006 5.96489,9.05775 -6.03141,15.8258 9.53495,14.47891 -6.05359,9.22612 -14.635035,-22.22347 z m 50.57958,0.26946 14.63504,22.22347 -11.24238,26.33144 -5.96488,-9.02408 6.03141,-15.85947 -9.53495,-14.47891 z" />
    <path
       style="fill:#000000;stroke-width:0.106667"
       id="path895"
       d="" />
  </g>
</svg>
